# xmcd
#
# Track frame offsets:
#	150
#	54675
#	96900
#	132225
#	163425
#
# Disc length: 2658 seconds
#
# Revision: 1
# Processed by: cddbd v1.5PL3 Copyright (c) Steve Scherf et al.
# Submitted via: CDex 1.50Beta5
#
DISCID=460a6005
DTITLE=Various Artist - 雨音の調べ
DYEAR=1900
DGENRE=
TTITLE0=サラサーテ/ツゴイネルワイゼン
TTITLE1=リッカルド・ドリゴ/ドリゴのセレナーデ
TTITLE2=バッハ/G線上のマリア
TTITLE3=ルードウィッヒ=ファン=ベートーベン/エリーゼのために
TTITLE4=フレデリック・フランツィシェク・ショパン/雨だれ
EXTD=
EXTT0=
EXTT1=
EXTT2=
EXTT3=
EXTT4=
PLAYORDER=
